# xmcd CD database file
#
# Track frame offsets:
#	150
#	23590
#	45707
#	54630
#	77012
#	100902
#	122945
#	146352
#	168817
#	173895
#	198342
#	214197
#	236210
#	239247
#	260432
#
# Disc length: 3774 seconds
#
# Revision: 4
# Processed by: cddbd v1.5.2PL0 Copyright (c) Steve Scherf et al.
# Submitted via: CDex 1.70beta2
#
DISCID=d40ebc0f
DTITLE=Angel Grant - Album
DYEAR=1997
DGENRE=R&B
TTITLE0=Hey You
TTITLE1=Knockin'
TTITLE2=OM
TTITLE3=Lil' Red Boat
TTITLE4=Kisses Luv Lips
TTITLE5=Not Here
TTITLE6=Illusions
TTITLE7=Anyway
TTITLE8=Not Afraid
TTITLE9=Well Okay, I'll Say It...(I'm N Love W/U)
TTITLE10=Deeper
TTITLE11=Whenever You Cry
TTITLE12=For The Babies
TTITLE13=Live Your Life
TTITLE14=I Love You
EXTD=YEAR: 1997
EXTT0=
EXTT1=
EXTT2=
EXTT3=
EXTT4=
EXTT5=
EXTT6=
EXTT7=
EXTT8=
EXTT9=
EXTT10=
EXTT11=
EXTT12=
EXTT13=
EXTT14=
PLAYORDER=
